<?xml version="1.0" encoding="utf-8"?>
<!-- Generator: Adobe Illustrator 20.0.0, SVG Export Plug-In . SVG Version: 6.00 Build 0)  -->
<svg version="1.1" id="Ebene_1" xmlns="http://www.w3.org/2000/svg" xmlns:xlink="http://www.w3.org/1999/xlink" x="0px" y="0px"
	 viewBox="0 0 138.6 130.3" style="enable-background:new 0 0 138.6 130.3;" xml:space="preserve">
<g>
	<path d="M31.1,130.3h5.7c3.2,0,6.1-0.9,6.1-4.6c0-2-1.2-3.4-3.1-4c1.5-0.5,2.7-1.8,2.7-3.6c0-2.8-2.1-4.1-5.1-4.1h-6.3V130.3
		L31.1,130.3z M33.2,121v-5.1h4.1c2.3,0,3.1,1,3.1,2.5c0,1.6-1.2,2.6-3.3,2.6H33.2L33.2,121z M33.2,128.6v-5.8h3.9
		c2.9,0,3.7,1.2,3.7,2.9c0,1.9-1.1,2.9-3.6,2.9H33.2L33.2,128.6z M45.8,130.3h10.8v-1.8h-8.7V123h8v-1.8h-8v-5.3h8.4v-1.8H45.8
		V130.3L45.8,130.3z M59.4,130.3h2.1v-7.1h4c2.4,0,3.4,0.8,3.4,3.4v3.7H71V126c0-2.1-1.1-3.4-2.6-3.7c1.5-0.4,3-1.9,3-3.9
		c0-2.7-2-4.3-5.1-4.3h-6.9V130.3L59.4,130.3z M61.5,121.5v-5.6h4.2c2.2,0,3.4,0.9,3.4,2.7c0,1.8-1.2,2.8-3.4,2.8H61.5L61.5,121.5z
		 M74.5,130.3H85v-1.8h-8.4v-14.4h-2.1V130.3L74.5,130.3z M87,130.3h2.1v-16.2H87V130.3L87,130.3z M93,130.3h2.1v-12.2v-2l8.5,14.2
		h2.9v-16.2h-2.1v11.8v2l-8.2-13.8H93V130.3L93,130.3z"/>
	<path d="M1.5,108.3h2.1V96.1v-2l8.5,14.2H15V92.1h-2.1v11.8v2L4.7,92.1H1.5V108.3L1.5,108.3z M18.9,108.3h10.8v-1.8H21V101h8v-1.8
		h-8v-5.3h8.4v-1.8H18.9V108.3L18.9,108.3z M38.6,108.7c3.7,0,6.1-2.2,6.1-6.7v-9.9h-2.1v9.6c0,3.6-1.4,5.2-4,5.2
		c-2.6,0-4-1.7-4-5.2v-9.6h-2.1v9.9C32.5,106.5,34.8,108.7,38.6,108.7L38.6,108.7z M48.4,108.3h10.8v-1.8h-8.7V101h8v-1.8h-8v-5.3
		h8.4v-1.8H48.4V108.3L48.4,108.3z M68.5,108.3h2.1V96.2v-2.2l5.5,14.4h2.3L84,93.6v2.5v12.2h2.1V92.1h-3.4l-4.5,11.8l-0.8,2.2
		c-0.3-0.7-0.6-1.5-0.9-2.2l-4.6-11.8h-3.4V108.3L68.5,108.3z M95.9,108.7c3.7,0,6.1-2.2,6.1-6.7v-9.9h-2.1v9.6c0,3.6-1.4,5.2-4,5.2
		c-2.6,0-4-1.7-4-5.2v-9.6h-2.1v9.9C89.8,106.5,92.1,108.7,95.9,108.7L95.9,108.7z M110.9,108.7c4,0,6.4-2.2,6.4-4.9
		c0-2.4-1.9-3.8-4.5-4.4l-2.9-0.7c-1.9-0.4-2.8-1.3-2.8-2.7c0-1.5,1.6-2.6,3.7-2.6c2.3,0,3.8,1.2,3.9,3.1h2.2c-0.2-3-2.5-4.9-6-4.9
		c-3.4,0-5.9,1.9-5.9,4.5c0,2.5,2,3.9,4.5,4.5l2.4,0.5c1.9,0.4,3.2,1.1,3.2,2.7c0,1.8-1.5,2.9-4.1,2.9c-2.6,0-4.3-1.5-4.4-3.8h-2.2
		C104.4,106.5,107,108.7,110.9,108.7L110.9,108.7z M119.9,108.3h2.1V92.1h-2.1V108.3L119.9,108.3z M138.6,108.3l-8.3-8.8l7.2-7.4
		h-2.6l-6,6.1c-0.3,0.3-0.7,0.7-0.9,1v-7.1h-2.1v16.2h2.1v-6.4l0.9-0.9l6.8,7.4H138.6L138.6,108.3z"/>
	<path d="M14.8,86.3h2.1V70.1h-2.1V86.3L14.8,86.3z M20.9,86.3H23V74.1v-2l8.5,14.2h2.9V70.1h-2.1v11.8v2l-8.2-13.8h-3.2V86.3
		L20.9,86.3z M38.6,86.3h2.1V70.1h-2.1V86.3L38.6,86.3z M48.7,86.3h2.1V71.9h5.6v-1.8H43.1v1.8h5.6V86.3L48.7,86.3z M58.7,86.3h2.1
		V70.1h-2.1V86.3L58.7,86.3z M76,86.3h2.3l-6.5-16.2h-2.5l-6.5,16.2H65l1.9-4.8h7.3L76,86.3L76,86.3z M67.5,79.7l2.5-6.5
		c0.2-0.4,0.3-0.8,0.5-1.2c0.1,0.4,0.3,0.8,0.5,1.2l2.5,6.5H67.5L67.5,79.7z M82.1,86.3h2.1V71.9h5.6v-1.8H76.5v1.8h5.6V86.3
		L82.1,86.3z M91.9,86.3H94V70.1h-2.1V86.3L91.9,86.3z M102.2,86.3h2.4l6.3-16.2h-2.2l-4.3,11.8l-0.8,2.2c-0.3-0.7-0.5-1.4-0.8-2.2
		l-4.3-11.8h-2.3L102.2,86.3L102.2,86.3z M112.9,86.3h10.8v-1.8H115v-5.6h8v-1.8h-8v-5.3h8.4v-1.8h-10.5V86.3L112.9,86.3z"/>
	<path d="M19.2,30h6.1c0-13.8,3.4-23.9,8.9-23.9c5.5,0,8.9,10.1,8.9,23.9h6.1c0-17-6.3-30-15-30S19.2,13,19.2,30L19.2,30z"/>
	<polygon points="6.1,30 6.1,0 0,0 0,30 6.1,30 	"/>
	<path d="M73.6,30h6.1c0-13.8,3.4-23.9,8.9-23.9c5.5,0,8.9,10.1,8.9,23.9h6.1c0-17-6.3-30-15-30C79.9,0,73.6,13,73.6,30L73.6,30z
		 M104.1,30h6.1c0-13.8,3.4-23.9,8.9-23.9c5.5,0,8.9,10.1,8.9,23.9h6.1c0-17-6.3-30-15-30C110.4,0,104.1,13,104.1,30L104.1,30z"/>
	<polygon points="97.6,61.4 103.7,61.4 103.7,31.3 97.6,31.3 97.6,61.4 	"/>
	<polygon points="128.1,61.4 134.2,61.4 134.2,31.3 128.1,31.3 128.1,61.4 	"/>
	<polygon points="6.1,61.4 12.1,61.4 12.1,31.3 6.1,31.3 6.1,61.4 	"/>
	<polygon points="19.2,61.4 25.3,61.4 25.3,31.3 19.2,31.3 19.2,61.4 	"/>
	<path d="M49.7,31.3c0,17,6.3,30,15,30c8.7,0,15-13,15-30h-6.1c0,13.8-3.4,23.9-8.9,23.9c-5.5,0-8.9-10.1-8.9-23.9H49.7L49.7,31.3z"
		/>
</g>
</svg>
